<!-- This is a placeholder for the 192x192 icon -->
<!-- In production, you should replace this with actual PNG icons -->
<!-- You can generate icons using tools like: -->
<!-- - https://www.pwabuilder.com/imageGenerator -->
<!-- - https://favicon.io/favicon-generator/ -->

<!-- For now, we'll use SVG as placeholder -->
<svg width="192" height="192" viewBox="0 0 192 192" fill="none" xmlns="http://www.w3.org/2000/svg">
  <rect width="192" height="192" rx="24" fill="#10b981"/>
  <rect x="32" y="32" width="128" height="128" rx="8" fill="white"/>
  <rect x="48" y="48" width="16" height="16" fill="#10b981"/>
  <rect x="48" y="72" width="16" height="16" fill="#10b981"/>
  <rect x="48" y="96" width="16" height="16" fill="#10b981"/>
  <rect x="72" y="48" width="16" height="16" fill="#10b981"/>
  <rect x="96" y="48" width="16" height="16" fill="#10b981"/>
  <rect x="120" y="48" width="16" height="16" fill="#10b981"/>
  <rect x="144" y="48" width="16" height="16" fill="#10b981"/>
  <rect x="144" y="72" width="16" height="16" fill="#10b981"/>
  <rect x="144" y="96" width="16" height="16" fill="#10b981"/>
  <rect x="72" y="144" width="16" height="16" fill="#10b981"/>
  <rect x="96" y="144" width="16" height="16" fill="#10b981"/>
  <rect x="120" y="144" width="16" height="16" fill="#10b981"/>
  <rect x="144" y="144" width="16" height="16" fill="#10b981"/>
  <rect x="48" y="144" width="16" height="16" fill="#10b981"/>
  <rect x="48" y="120" width="16" height="16" fill="#10b981"/>
  <rect x="144" y="120" width="16" height="16" fill="#10b981"/>
</svg>
