<!-- This is a placeholder for the 512x512 icon -->
<svg width="512" height="512" viewBox="0 0 512 512" fill="none" xmlns="http://www.w3.org/2000/svg">
  <rect width="512" height="512" rx="64" fill="#10b981"/>
  <rect x="86" y="86" width="340" height="340" rx="20" fill="white"/>
  <rect x="128" y="128" width="42" height="42" fill="#10b981"/>
  <rect x="128" y="192" width="42" height="42" fill="#10b981"/>
  <rect x="128" y="256" width="42" height="42" fill="#10b981"/>
  <rect x="192" y="128" width="42" height="42" fill="#10b981"/>
  <rect x="256" y="128" width="42" height="42" fill="#10b981"/>
  <rect x="320" y="128" width="42" height="42" fill="#10b981"/>
  <rect x="384" y="128" width="42" height="42" fill="#10b981"/>
  <rect x="384" y="192" width="42" height="42" fill="#10b981"/>
  <rect x="384" y="256" width="42" height="42" fill="#10b981"/>
  <rect x="192" y="384" width="42" height="42" fill="#10b981"/>
  <rect x="256" y="384" width="42" height="42" fill="#10b981"/>
  <rect x="320" y="384" width="42" height="42" fill="#10b981"/>
  <rect x="384" y="384" width="42" height="42" fill="#10b981"/>
  <rect x="128" y="384" width="42" height="42" fill="#10b981"/>
  <rect x="128" y="320" width="42" height="42" fill="#10b981"/>
  <rect x="384" y="320" width="42" height="42" fill="#10b981"/>
</svg>
